<svg width="29" height="29" viewBox="0 0 29 29" fill="none" xmlns="http://www.w3.org/2000/svg">
<g id="clarity:ruler-pencil-line" clip-path="url(#clip0_283_944)">
<path id="Vector" d="M7.5 14.4526V21.9115H14.9589L13.4033 20.356H9.05556V16.0082L7.5 14.4526Z" fill="white"/>
<path id="Vector_2" d="M27.6211 26.0262L25.3889 23.7629V25.8007H3.61111V22.5729H5.16667V21.3285H3.61111V16.1562H5.16667V14.9118H3.61111V9.93403H5.16667V8.68958H3.61111V4.3418L16.0089 16.6696V14.4762L3.38556 1.91514C3.27677 1.80545 3.13778 1.73064 2.98631 1.70025C2.83484 1.66987 2.67775 1.68527 2.53507 1.74452C2.39239 1.80376 2.27059 1.90415 2.18519 2.03288C2.09978 2.16162 2.05466 2.31287 2.05556 2.46736V26.5785C2.05556 26.7848 2.1375 26.9826 2.28336 27.1284C2.42922 27.2743 2.62705 27.3563 2.83333 27.3563H27.0689C27.2234 27.3571 27.3746 27.312 27.5034 27.2266C27.6321 27.1412 27.7325 27.0194 27.7917 26.8767C27.851 26.7341 27.8664 26.577 27.836 26.4255C27.8056 26.274 27.7308 26.135 27.6211 26.0262Z" fill="white"/>
<path id="Vector_3" d="M19.1666 24.2449H22.2778C22.6903 24.2449 23.086 24.0811 23.3777 23.7893C23.6694 23.4976 23.8333 23.1019 23.8333 22.6894V7.67828L22.0444 4.38828C21.9061 4.14858 21.7063 3.95014 21.4656 3.81342C21.225 3.6767 20.9523 3.60665 20.6755 3.6105C20.3925 3.61275 20.1155 3.69216 19.8743 3.84017C19.6331 3.98819 19.4368 4.19921 19.3066 4.4505L17.6111 7.69384V22.6894C17.6111 23.1019 17.775 23.4976 18.0667 23.7893C18.3584 24.0811 18.7541 24.2449 19.1666 24.2449ZM19.1666 8.06717L20.6755 5.13495L22.2778 8.07495V19.5783H19.1666V8.06717ZM19.1666 20.8461H22.2778V22.7438H19.1666V20.8461Z" fill="white"/>
</g>
<defs>
<clipPath id="clip0_283_944">
<rect width="28" height="28" fill="white" transform="translate(0.5 0.911621)"/>
</clipPath>
</defs>
</svg>
